<?xml version="1.0" encoding="UTF-8"?>
<svg width="128" height="128" viewBox="0 0 128 128" fill="none" xmlns="http://www.w3.org/2000/svg">
  <circle cx="64" cy="64" r="64" fill="#8247E5"/>
  <path d="M84.5 44.268C82.4 43.028 79.7 43.028 77.4 44.268L67.4 50.068L60.5 54.068L50.5 59.868C48.4 61.108 45.7 61.108 43.4 59.868L35.6 55.308C33.5 54.068 32 51.828 32 49.348V40.468C32 37.988 33.3 35.748 35.6 34.508L43.4 30.188C45.5 28.948 48.2 28.948 50.5 30.188L58.3 34.748C60.4 35.988 61.9 38.228 61.9 40.708V46.508L68.8 42.508V36.708C68.8 34.228 67.5 31.988 65.2 30.748L50.7 22.148C48.6 20.908 45.9 20.908 43.6 22.148L28.7 30.988C26.4 32.228 25.1 34.468 25.1 36.948V52.868C25.1 55.348 26.4 57.588 28.7 58.828L43.6 67.428C45.7 68.668 48.4 68.668 50.7 67.428L60.7 61.868L67.6 57.628L77.6 52.068C79.7 50.828 82.4 50.828 84.7 52.068L92.5 56.628C94.6 57.868 96.1 60.108 96.1 62.588V71.468C96.1 73.948 94.8 76.188 92.5 77.428L84.7 81.988C82.6 83.228 79.9 83.228 77.6 81.988L69.8 77.428C67.7 76.188 66.2 73.948 66.2 71.468V65.668L59.3 69.668V75.468C59.3 77.948 60.6 80.188 62.9 81.428L77.4 89.788C79.5 91.028 82.2 91.028 84.5 89.788L99.4 81.428C101.5 80.188 103 77.948 103 75.468V59.548C103 57.068 101.7 54.828 99.4 53.588L84.5 44.268Z" fill="white"/>
</svg>
