<?xml version="1.0" encoding="UTF-8"?>
<svg width="128" height="128" viewBox="0 0 128 128" fill="none" xmlns="http://www.w3.org/2000/svg">
  <circle cx="64" cy="64" r="64" fill="#14F195"/>
  <path d="M38.4 85.6L46.8 94C47.2 94.4 47.8 94.6 48.4 94.6H92.8C93.8 94.6 94.3 93.4 93.6 92.7L85.2 84.3C84.8 83.9 84.2 83.7 83.6 83.7H39.2C38.2 83.7 37.7 84.9 38.4 85.6ZM38.4 59.6L46.8 68C47.2 68.4 47.8 68.6 48.4 68.6H92.8C93.8 68.6 94.3 67.4 93.6 66.7L85.2 58.3C84.8 57.9 84.2 57.7 83.6 57.7H39.2C38.2 57.7 37.7 58.9 38.4 59.6ZM93.6 40.7L85.2 32.3C84.8 31.9 84.2 31.7 83.6 31.7H39.2C38.2 31.7 37.7 32.9 38.4 33.6L46.8 42C47.2 42.4 47.8 42.6 48.4 42.6H92.8C93.8 42.6 94.3 41.4 93.6 40.7Z" fill="white"/>
</svg>
