<?xml version="1.0" encoding="UTF-8"?>
<svg id="Layer_1" xmlns="http://www.w3.org/2000/svg" version="1.1" viewBox="0 0 625.2 595.3">
  <!-- Generator: Adobe Illustrator 29.7.1, SVG Export Plug-In . SVG Version: 2.1.1 Build 8)  -->
  <defs>
    <style>
      .st0 {
        fill: #fff;
      }

      .st1 {
        fill: #5d43ef;
      }
    </style>
  </defs>
  <path d="M170.3,60.2s-7.6-25.4,23.2-30.5,173.3,0,173.3,0l9.1,18.9,21.1,88.4s-197.5,10.3-198.3,6c-.9-4.3-28.4-82.7-28.4-82.7h0Z"/>
  <polygon points="82.9 448.3 189.3 444 203.8 531.6 145.7 543.2 98.4 526.3 82.9 448.3"/>
  <polygon points="463.5 64.6 384.1 64.6 389.4 113.3 217.7 113.3 210.5 60.2 116.5 60.2 98.4 81.1 168.1 489.1 145.7 543.2 517.6 540.3 542.5 516.4 542.5 466.7 477.6 82.6 463.5 64.6"/>
  <path class="st1" d="M550.1,475.8c-5.4-35.2-44.7-280.3-61.3-384.1-3.6-22.5-22.8-38.9-45.6-38.9h-62.2c-5.4,0-9.7,4.3-9.7,9.7s4.3,9.7,9.7,9.7h62.2c13.3,0,24.4,9.5,26.5,22.6,16.6,103.7,55.9,348.9,61.3,384,3.3,21.4,1.2,37.7-6,46-4,4.6-9.6,6.9-17,6.9H166c7-11.2,11.1-27.7,6.9-50.9-1.1-6.4-3.1-18.1-5.7-33.6,0-.3,0-.7-.2-1-14.4-87.5-46.9-293.1-57.9-362.9-.5-2.8.3-5.5,2.2-7.7,1.8-2.2,4.5-3.4,7.3-3.4h93.3c5.3,0,9.7-4.3,9.7-9.7s-4.3-9.7-9.7-9.7h-93.3c-8.5,0-16.5,3.7-22,10.2-5.5,6.5-7.9,14.9-6.6,23.3,10.6,67.1,41,259.4,56.2,352.2h-63.2c-2.8,0-5.5,1.2-7.4,3.4-1.8,2.2-2.6,5-2.2,7.8,0,0,4.2,26.3,7.7,48.3,3.5,22.4,8.3,53.1,58.5,53.1h368.3c13.1,0,24-4.7,31.7-13.7,11.2-13.1,14.7-33.7,10.4-61.6h0ZM138.1,531.6c-32.1-.4-34.4-14.9-37.8-36.7-2-13-4.3-27.4-5.9-37.1h55c2,11.9,3.5,21,4.5,26.4,6.4,35.8-10.9,45.5-15.8,47.5h0Z"/>
  <path class="st1" d="M461.6,199.1H168.4c-5.3,0-9.7-4.3-9.7-9.7s4.3-9.7,9.7-9.7h293.3c5.3,0,9.7,4.3,9.7,9.7s-4.3,9.7-9.7,9.7h0Z"/>
  <path class="st1" d="M473.2,275.8H180c-5.3,0-9.7-4.3-9.7-9.7s4.3-9.7,9.7-9.7h293.3c5.3,0,9.7,4.3,9.7,9.7s-4.3,9.7-9.7,9.7h0Z"/>
  <path class="st1" d="M484.9,352.4H191.6c-5.3,0-9.7-4.3-9.7-9.7s4.3-9.7,9.7-9.7h293.3c5.3,0,9.7,4.3,9.7,9.7s-4.3,9.7-9.7,9.7Z"/>
  <path class="st1" d="M366.3,429.1h-163c-5.3,0-9.7-4.3-9.7-9.7s4.3-9.7,9.7-9.7h163c5.3,0,9.7,4.3,9.7,9.7s-4.3,9.7-9.7,9.7Z"/>
  <path class="st0" d="M396.9,111.3l-9.8-62.6c-2.5-16.1-16.1-27.7-32.4-27.7h-161.2c-.2-.1-.5-.1-1.1-.1-3.6.2-14.5,1.6-22.3,10.7-4.7,5.5-7.2,12.6-7.6,21.1h19.4c.2-3.2.9-6.2,2.8-8.4,2.9-3.5,7.6-4,8.6-4.1h0c.9,0,5.5,2.1,6.5,8.8,1.8,11.4,10.4,64.8,10.5,65.3.8,4.7,4.8,8.1,9.6,8.1h167.3c2.8,0,5.5-1.2,7.4-3.4,1.8-2.2,2.6-5,2.2-7.8h0ZM228.3,103.1c-2.5-15.5-7.8-48.4-9.2-57.1-.3-2-.8-3.9-1.4-5.7h137c6.7,0,12.3,4.9,13.3,11.5l8,51.4h-147.7Z"/>
</svg>