<?xml version="1.0" encoding="UTF-8"?>
<svg id="Layer_1" xmlns="http://www.w3.org/2000/svg" version="1.1" viewBox="0 0 625.2 595.3">
  <!-- Generator: Adobe Illustrator 29.7.1, SVG Export Plug-In . SVG Version: 2.1.1 Build 8)  -->
  <defs>
    <style>
      .st0 {
        fill: #fff;
      }

      .st1 {
        fill: #5d43ef;
      }
    </style>
  </defs>
  <path d="M43.4,356.9s5-33.2,32.3-33.7,50.1,29.7,50.1,29.7l53.2-9.2s61-10,98.3,9.6c37.3,19.6,122.9,81.5,122.9,81.5l127-61s45.5-.7,49.1,17.9c3.6,18.5-5.4,32.6-5.4,32.6l-161.6,93.3s-29.6,11.8-46.9,10.9c-17.3-.9-237.1,0-237.1,0,0,0-11,39.1-39.4,34.1-28.4-5-41.1-23.2-40.7-47.3.5-24.1-1.8-158.4-1.8-158.4Z"/>
  <polygon points="414.4 29.6 257.2 122 257.2 301.3 414.4 391.6 570.9 301.3 570.9 122.7 414.4 29.6"/>
  <path class="st1" d="M414.4,401.5c-1.7,0-3.3-.4-4.8-1.3l-156.3-90.2c-3-1.7-4.8-4.9-4.8-8.3V121.2c0-3.4,1.8-6.6,4.8-8.3L409.6,22.7c3-1.7,6.6-1.7,9.6,0l156.3,90.2c3,1.7,4.8,4.9,4.8,8.3v180.5c0,3.4-1.8,6.6-4.8,8.3l-156.3,90.2c-1.5.9-3.1,1.3-4.8,1.3ZM267.6,296.2l146.7,84.7,146.7-84.7V126.8l-146.7-84.7-146.7,84.7v169.4Z"/>
  <g>
    <path class="st0" d="M286.6,162.9h20.8l46.8,62.8v-62.8h20.9v97.2h-20.9l-46.8-62.8v62.8h-20.8v-97.2Z"/>
    <path class="st0" d="M401.9,181.7v21.1h48.8v18.8h-48.8v38.5h-20.9v-97.2h74.9v18.8h-53.9Z"/>
    <path class="st0" d="M490.9,181.7h-30.3v-18.8h81.5v18.8h-30.3v78.4h-20.9v-78.4Z"/>
  </g>
  <path class="st1" d="M85.9,573.8c-28,0-50.7-22.8-50.7-50.7v-159.9c0-28,22.8-50.7,50.7-50.7s50.7,22.8,50.7,50.7v159.9c0,28-22.8,50.7-50.7,50.7ZM85.9,331.6c-17.4,0-31.6,14.2-31.6,31.6v159.9c0,17.4,14.2,31.6,31.6,31.6s31.6-14.2,31.6-31.6v-159.9c0-17.4-14.2-31.6-31.6-31.6Z"/>
  <path class="st1" d="M349.5,481.3c-5.6,0-11.2-.8-16.8-2.3l-95-26.6c-5.1-1.4-8.1-6.7-6.6-11.8,1.4-5.1,6.7-8.1,11.8-6.6l95,26.6c18,5,37-2.1,47.2-17.7,1.9-2.9,2.5-6.4,1.7-9.8-.8-3.4-2.9-6.2-5.9-8l-102.1-60.2c-41.1-24.2-92.5-24.6-133.9-.9l-13.1,7.5c-4.6,2.6-10.4,1-13-3.6-2.6-4.6-1-10.4,3.6-13l13.1-7.5c47.4-27.1,106.1-26.7,153.1,1l102.1,60.2c7.5,4.4,12.8,11.6,14.8,20.1,2,8.5.4,17.3-4.3,24.6-11.7,17.8-31.1,28-51.6,28Z"/>
  <path class="st1" d="M369.1,538H127.1c-5.3,0-9.6-4.3-9.6-9.6s4.3-9.6,9.6-9.6h242c16.3,0,32.3-4.4,46.4-12.8,19.2-11.4,45.3-26.8,70.7-41.7,34.5-20.3,67.1-39.5,75.7-44.9,6.7-4.2,9.8-9.9,8.8-16.1-1.2-7.8-8.7-14.8-18.5-17.3-29.6-7.5-55.1,6.9-84.7,23.7l-.3.2c-33.5,19-65.7,38-66,38.2-4.6,2.7-10.4,1.2-13.1-3.4-2.7-4.5-1.2-10.4,3.4-13.1.3-.2,32.6-19.2,66.3-38.3l.3-.2c31.7-18,61.7-35,98.8-25.6,17.4,4.4,30.2,17.3,32.7,32.8,2.2,13.8-4.4,26.9-17.5,35.2-8.9,5.6-41.6,24.8-76.2,45.2-25.3,14.9-51.5,30.3-70.6,41.7-17,10.1-36.4,15.5-56.1,15.5Z"/>
</svg>