<?xml version="1.0" encoding="UTF-8"?>
<svg id="Layer_1" xmlns="http://www.w3.org/2000/svg" version="1.1" viewBox="0 0 625.2 595.3">
  <!-- Generator: Adobe Illustrator 29.7.1, SVG Export Plug-In . SVG Version: 2.1.1 Build 8)  -->
  <defs>
    <style>
      .st0 {
        fill: #fff;
      }

      .st1 {
        fill: #5d43ef;
      }
    </style>
  </defs>
  <path d="M74.8,490.8h29.5V213.7c0-59.1,92.6-173.9,197.8-177.3,105.2-3.4,201.1,61.4,211.2,157.4,10.1,95.9,5,297.1,5,297.1h32.8v67.3H74.8v-67.3Z"/>
  <path d="M410.5,166.2c-3.9,8.1-11.7,14.1-23.4,14.1s-23.7-10.1-25.8-21.5c-3.2-6.9-3.6-15.2-1.1-22.5l-48.2-28.7-155.2,91.2v177l155.2,89.2,154.5-89.2v-176.3l-56.1-33.3Z"/>
  <path class="st1" d="M527.7,484.4h-19.6v-244.3c0-107.8-87.7-195.6-195.6-195.6S117,132.2,117,240.1v244.3h-19.6v-244.3c0-118.6,96.5-215.1,215.1-215.1s215.1,96.5,215.1,215.1v244.3Z"/>
  <g>
    <path class="st1" d="M477.3,185.6l-43.2-24.9-18-10.4c-6.1,3.5-11.5,8-16.1,13.3l15.1,8.7,47.5,27.4v173.2l-150,86.6-150-86.6v-173.2l150-86.6,35.3,20.4,17.8,10.3c5.9-3.6,11.3-8.2,15.7-13.5l-15.1-8.7-48.9-28.2c-3-1.7-6.7-1.7-9.8,0l-159.8,92.3c-3,1.7-4.9,5-4.9,8.5v184.5c0,3.5,1.9,6.7,4.9,8.5l159.8,92.3c1.5.9,3.2,1.3,4.9,1.3s3.4-.4,4.9-1.3l159.8-92.3c3-1.8,4.9-5,4.9-8.5v-184.5c0-3.5-1.9-6.7-4.9-8.5Z"/>
    <g>
      <path class="st0" d="M251.1,236.7v64.2l-47.9-64.2h-21.3v99.4h21.3v-64.2l47.9,64.2h21.4v-99.4h-21.4Z"/>
      <path class="st0" d="M355,255.9v-19.2h-76.5v99.4h21.4v-39.3h49.9v-19.2h-49.9v-21.6h55.1Z"/>
      <path class="st0" d="M359.9,236.7v19.2h31v80.2h21.4v-80.2h31v-19.2h-83.3Z"/>
    </g>
  </g>
  <path class="st1" d="M554.6,570.3H70.6c-2.4,0-4.3-1.9-4.3-4.3v-81.2c0-2.4,1.9-4.3,4.3-4.3h484c2.4,0,4.3,1.9,4.3,4.3v81.2c0,2.4-1.9,4.3-4.3,4.3ZM85.9,550.8h453.4v-50.6H85.9v50.6Z"/>
  <path class="st0" d="M450.7,138.2l-15.7-4.8c-14.6-4.4-26.2-15.7-31-30.2l-5.3-16.1c-1.1-3.5-4.4-5.8-8.1-5.8h0c-3.7,0-6.9,2.4-8.1,5.8l-5.4,16.6c-2.2,6.7-5.9,12.8-10.7,17.8-5.1,5.3-11.4,9.4-18.5,11.9,0,0-.2,0-.3,0l-17.4,5.9c-3.4,1.2-5.8,4.4-5.8,8.1s2.3,6.9,5.8,8l17.4,5.9c13.9,4.7,24.9,15.8,29.5,29.8l5.4,16.6c1.1,3.5,4.4,5.8,8.1,5.8h.1c3.7,0,7-2.6,8-6.1l4.4-15.1c2.2-7.7,6.4-14.6,12-20.1,4.6-4.7,10.3-8.4,16.7-10.8l2.3-.9,17.1-6.4c3.4-1.3,5.6-4.6,5.5-8.2,0-3.6-2.5-6.8-6-7.8ZM400,163.6c-3.9,4.5-7.2,9.5-9.8,15-6.5-13.7-17.8-24.8-31.7-31,2.5-1.1,4.8-2.3,7.1-3.8,5.9-3.6,11.3-8.2,15.7-13.5,3.7-4.4,6.8-9.3,9.3-14.6,6.5,13.9,17.9,25.1,31.9,31.3-2.2,1-4.4,2.1-6.5,3.3-6.1,3.5-11.5,8-16.1,13.3Z"/>
</svg>