<?xml version="1.0" encoding="UTF-8"?>
<svg id="Layer_1" xmlns="http://www.w3.org/2000/svg" version="1.1" viewBox="0 0 625.2 595.3">
  <!-- Generator: Adobe Illustrator 29.7.1, SVG Export Plug-In . SVG Version: 2.1.1 Build 8)  -->
  <defs>
    <style>
      .st0 {
        fill: #fff;
      }

      .st1 {
        fill: #5d43ef;
      }
    </style>
  </defs>
  <polygon points="90.7 163.6 312.6 34.6 530.6 163.6 430.7 163.6 429.6 560.8 192.8 560.8 192.8 167 90.7 163.6"/>
  <polygon points="312.9 134.8 140.6 236.1 140.6 432.6 312.9 531.6 484.6 432.6 484.6 236.8 312.9 134.8"/>
  <path class="st1" d="M428,206.6c-6,0-10.8-4.9-10.8-10.8v-28.1c0-6,4.9-10.8,10.8-10.8h72.5l-188-108.5-188,108.5h72.5c6,0,10.8,4.9,10.8,10.8v28.1c0,6-4.9,10.8-10.8,10.8s-10.8-4.9-10.8-10.8v-17.3h-102.2c-4.9,0-9.2-3.3-10.5-8-1.3-4.7.8-9.7,5.1-12.2L307.2,26.4c3.4-1.9,7.5-1.9,10.8,0l228.4,131.9c4.2,2.5,6.3,7.5,5.1,12.2-1.3,4.7-5.6,8-10.5,8h-102.2v17.3c0,6-4.9,10.8-10.8,10.8Z"/>
  <path class="st1" d="M428,570.3h-230.8c-6,0-10.8-4.9-10.8-10.8v-82.7c0-6,4.9-10.8,10.8-10.8s10.8,4.9,10.8,10.8v71.9h209.2v-71.9c0-6,4.9-10.8,10.8-10.8s10.8,4.9,10.8,10.8v82.7c0,6-4.9,10.8-10.8,10.8Z"/>
  <g>
    <path class="st1" d="M312.6,548.7c-1.9,0-3.7-.5-5.4-1.5l-177.2-102.3c-3.4-1.9-5.4-5.5-5.4-9.4v-204.6c0-3.9,2.1-7.5,5.4-9.4l177.2-102.3c3.4-1.9,7.5-1.9,10.8,0l177.2,102.3c3.4,1.9,5.4,5.5,5.4,9.4v204.6c0,3.9-2.1,7.5-5.4,9.4l-177.2,102.3c-1.7,1-3.5,1.5-5.4,1.5ZM146.2,429.2l166.4,96.1,166.4-96.1v-192.1l-166.4-96.1-166.4,96.1v192.1Z"/>
    <g>
      <path class="st0" d="M167.7,278.1h23.6l53.1,71.2v-71.2h23.7v110.2h-23.7l-53.1-71.2v71.2h-23.6v-110.2Z"/>
      <path class="st0" d="M298.5,299.4v23.9h55.4v21.3h-55.4v43.6h-23.7v-110.2h84.9v21.3h-61.1Z"/>
      <path class="st0" d="M399.4,299.4h-34.3v-21.3h92.4v21.3h-34.3v88.9h-23.7v-88.9Z"/>
    </g>
  </g>
</svg>