<svg width="400" height="400" viewBox="0 0 400 400" fill="none" xmlns="http://www.w3.org/2000/svg">
<rect width="400" height="400" rx="200" fill="#3B99FC"/>
<path d="M124.6 167.7C172.5 135.7 227.5 135.7 275.4 167.7L285.2 174.5C287.9 176.4 288.6 180.2 286.7 182.9C284.8 185.6 281 186.3 278.3 184.4L268.5 177.6C226.4 149.5 173.6 149.5 131.5 177.6L121.7 184.4C119 186.3 115.2 185.6 113.3 182.9C111.4 180.2 112.1 176.4 114.8 174.5L124.6 167.7ZM100.3 192.1C155.4 153.6 244.6 153.6 299.7 192.1L309.5 198.9C312.2 200.8 312.9 204.6 311 207.3C309.1 210 305.3 210.7 302.6 208.8L292.8 202C243.9 167.3 156.1 167.3 107.2 202L97.4 208.8C94.7 210.7 90.9 210 89 207.3C87.1 204.6 87.8 200.8 90.5 198.9L100.3 192.1ZM200 242.2C185.8 242.2 174.5 230.9 174.5 216.7C174.5 202.5 185.8 191.2 200 191.2C214.2 191.2 225.5 202.5 225.5 216.7C225.5 230.9 214.2 242.2 200 242.2ZM200 208.2C192.6 208.2 186.5 214.3 186.5 221.7C186.5 229.1 192.6 235.2 200 235.2C207.4 235.2 213.5 229.1 213.5 221.7C213.5 214.3 207.4 208.2 200 208.2Z" fill="white"/>
</svg>
